<svg xmlns="http://www.w3.org/2000/svg" viewBox="0 0 32 32" fill="none">
  <rect width="32" height="32" rx="8" fill="url(#grad)"/>
  <path d="M16 8c-2.5 0-2.8.01-3.8.05-1 .05-1.7.2-2.3.45-.6.25-1.1.6-1.6 1.1-.5.5-.85 1-1.1 1.6-.25.6-.4 1.3-.45 2.3C7 13.5 7 13.8 7 16.3s.01 2.8.05 3.8c.05 1 .2 1.7.45 2.3.25.6.6 1.1 1.1 1.6.5.5 1 .85 1.6 1.1.6.25 1.3.4 2.3.45 1 .05 1.3.05 3.8.05s2.8-.01 3.8-.05c1-.05 1.7-.2 2.3-.45.6-.25 1.1-.6 1.6-1.1.5-.5.85-1 1.1-1.6.25-.6.4-1.3.45-2.3.05-1 .05-1.3.05-3.8s-.01-2.8-.05-3.8c-.05-1-.2-1.7-.45-2.3-.25-.6-.6-1.1-1.1-1.6-.5-.5-1-.85-1.6-1.1-.6-.25-1.3-.4-2.3-.45C18.8 8.01 18.5 8 16 8zm0 1.7c2.4 0 2.7.01 3.6.05.9.04 1.4.18 1.7.3.4.17.7.35 1 .6.3.25.45.55.6 1 .12.3.26.8.3 1.7.04.9.05 1.2.05 3.6s-.01 2.7-.05 3.6c-.04.9-.18 1.4-.3 1.7-.17.4-.35.7-.6 1-.25.3-.55.45-1 .6-.3.12-.8.26-1.7.3-.9.04-1.2.05-3.6.05s-2.7-.01-3.6-.05c-.9-.04-1.4-.18-1.7-.3-.4-.17-.7-.35-1-.6-.3-.25-.45-.55-.6-1-.12-.3-.26-.8-.3-1.7-.04-.9-.05-1.2-.05-3.6s.01-2.7.05-3.6c.04-.9.18-1.4.3-1.7.17-.4.35-.7.6-1 .25-.3.55-.45 1-.6.3-.12.8-.26 1.7-.3.9-.04 1.2-.05 3.6-.05zM16 12.5a3.5 3.5 0 100 7 3.5 3.5 0 000-7zm0 5.8a2.3 2.3 0 110-4.6 2.3 2.3 0 010 4.6zm4.5-6a.8.8 0 11-1.6 0 .8.8 0 011.6 0z" fill="white"/>
  <defs>
    <linearGradient id="grad" x1="0" y1="0" x2="32" y2="32">
      <stop stop-color="#833AB4"/>
      <stop offset="0.5" stop-color="#E1306C"/>
      <stop offset="1" stop-color="#F77737"/>
    </linearGradient>
  </defs>
</svg>
